<?xml version="1.0" encoding="utf-8"?>
<!-- Generator: Adobe Illustrator 16.0.0, SVG Export Plug-In . SVG Version: 6.00 Build 0)  -->
<!DOCTYPE svg PUBLIC "-//W3C//DTD SVG 1.1//EN" "http://www.w3.org/Graphics/SVG/1.1/DTD/svg11.dtd">
<svg version="1.1" id="Layer_1" xmlns="http://www.w3.org/2000/svg" xmlns:xlink="http://www.w3.org/1999/xlink" x="0px" y="0px"
	 width="152.004px" height="42px" viewBox="0 0 152.004 42" enable-background="new 0 0 152.004 42" xml:space="preserve">
<g>
	<path d="M147.358,28.15v10.276h-4.914V28.15c0-2.771-1.075-4.467-3.756-4.467c-2.68,0-3.752,1.696-3.752,4.467v10.276h-4.915V28.15
		c0-5.721,2.948-9.026,8.757-9.026C144.497,19.123,147.358,22.341,147.358,28.15 M70.685,29.043c0,5.809-4.021,9.83-9.829,9.83
		c-5.809,0-9.919-4.112-9.919-9.921V12.69h4.916v9.024c1.25-1.34,3.127-2.502,5.897-2.502
		C67.111,19.123,70.685,23.145,70.685,29.043 M65.681,29.043c0-3.039-2.144-5.273-4.915-5.273c-2.771,0-4.914,2.325-4.914,5.273
		c0,3.037,2.143,5.271,4.914,5.271C63.625,34.315,65.681,31.992,65.681,29.043 M91.686,29.4c0,0.446,0,1.071-0.09,1.52h-14.03
		c0.269,2.324,2.414,3.842,5.005,3.842c1.965,0,3.575-0.534,4.915-1.787l2.502,3.396c-1.43,1.161-3.933,2.503-7.417,2.503
		c-5.988,0-10.009-3.934-10.009-9.742c0-5.717,4.2-10.008,9.74-10.008C88.2,19.123,91.686,22.967,91.686,29.4 M86.681,27.344
		c-0.357-2.321-1.787-4.108-4.558-4.108c-2.681,0-4.2,1.787-4.558,4.108H86.681z M94.276,38.335h4.915V12.69h-4.915V38.335z
		 M119.924,19.748h-5.721l-6.61,8.221V12.69h-4.915v25.736h4.915V29.49l6.61,8.937h5.989l-7.596-10.098L119.924,19.748z
		 M122.067,38.335h4.915V19.748h-4.915V38.335z M19.66,8.669c-2.414,0-4.379-1.966-4.379-4.379c0-2.323,1.965-4.29,4.379-4.29
		c2.413,0,4.378,1.967,4.378,4.378C24.038,6.792,22.072,8.669,19.66,8.669 M15.817,13.047c-1.609,0-2.859,1.341-2.859,2.859
		c0,1.609,1.341,2.86,2.859,2.86c1.609,0,2.86-1.34,2.86-2.86C18.677,14.387,17.426,13.047,15.817,13.047 M2.86,11.796
		c-1.609,0-2.86,1.34-2.86,2.859c0,1.608,1.34,2.859,2.86,2.859c1.607,0,2.858-1.34,2.858-2.859
		C5.809,13.047,4.468,11.796,2.86,11.796 M20.642,15.906c0,1.609,1.341,2.86,2.86,2.86c1.608,0,2.859-1.34,2.859-2.86
		c0-1.607-1.34-2.859-2.859-2.859C21.894,13.047,20.642,14.387,20.642,15.906 M36.371,11.796c-1.609,0-2.859,1.34-2.859,2.859
		c0,1.608,1.34,2.859,2.859,2.859c1.609,0,2.859-1.34,2.859-2.859C39.319,13.047,37.979,11.796,36.371,11.796 M15.817,20.821
		c-1.609,0-2.859,1.34-2.859,2.862c0,1.606,1.341,2.858,2.859,2.858c1.609,0,2.86-1.34,2.86-2.858
		C18.677,22.073,17.426,20.821,15.817,20.821 M26.451,23.683c0-1.61-1.34-2.862-2.859-2.862c-1.608,0-2.86,1.34-2.86,2.862
		c0,1.606,1.341,2.858,2.86,2.858S26.451,25.289,26.451,23.683 M11.885,36.28c-1.608,0-2.859,1.34-2.859,2.862
		c0,1.608,1.34,2.858,2.859,2.858c1.609,0,2.86-1.25,2.86-2.858C14.834,37.531,13.494,36.28,11.885,36.28 M27.344,36.28
		c-1.608,0-2.859,1.34-2.859,2.862c0,1.608,1.34,2.858,2.859,2.858c1.609,0,2.86-1.25,2.86-2.858
		C30.293,37.531,28.953,36.28,27.344,36.28 M124.57,11.707c-1.609,0-2.859,1.251-2.859,2.859s1.25,2.86,2.859,2.86
		s2.858-1.251,2.858-2.86C127.429,13.047,126.18,11.707,124.57,11.707"/>
	<path d="M124.57,11.707c-1.609,0-2.859,1.251-2.859,2.859s1.25,2.86,2.859,2.86s2.858-1.251,2.858-2.86
		C127.429,13.047,126.18,11.707,124.57,11.707 M150.127,37.085h-0.446v1.25h-0.267v-1.25h-0.446v-0.269h1.159V37.085z
		 M151.914,36.817h-0.267l-0.537,1.162l-0.536-1.162h-0.267v1.519h0.267v-1.071l0.446,1.071h0.181l0.534-1.071v1.071h0.269v-1.519
		H151.914z"/>
</g>
</svg>
